<svg width="25" height="25" viewBox="0 0 25 25" fill="none" xmlns="http://www.w3.org/2000/svg">
<path d="M13.75 14.5833H13.125V8.85417C13.125 8.56641 12.9852 8.33333 12.8125 8.33333H12.282C12.0969 8.33333 11.916 8.42448 11.7621 8.5957L11.1633 9.26107C11.1291 9.29897 11.0998 9.34771 11.0769 9.40451C11.0541 9.46132 11.0382 9.52507 11.0301 9.59212C11.0221 9.65917 11.0221 9.72821 11.03 9.79529C11.038 9.86238 11.0538 9.92618 11.0766 9.98307L11.4234 10.8496C11.4462 10.9065 11.4754 10.9554 11.5095 10.9935C11.5436 11.0316 11.5818 11.0581 11.6221 11.0715C11.6623 11.0849 11.7037 11.085 11.744 11.0717C11.7842 11.0584 11.8225 11.0321 11.8566 10.9941L11.875 10.974V14.5833H11.25C11.0773 14.5833 10.9375 14.8164 10.9375 15.1042V16.1458C10.9375 16.4336 11.0773 16.6667 11.25 16.6667H13.75C13.9227 16.6667 14.0625 16.4336 14.0625 16.1458V15.1042C14.0625 14.8164 13.9227 14.5833 13.75 14.5833ZM23.75 0H1.25C0.559766 0 0 0.932943 0 2.08333V22.9167C0 24.0671 0.559766 25 1.25 25H23.75C24.4402 25 25 24.0671 25 22.9167V2.08333C25 0.932943 24.4402 0 23.75 0ZM1.875 21.875V17.7083C3.25586 17.7083 4.375 19.5736 4.375 21.875H1.875ZM1.875 7.29167V3.125H4.375C4.375 5.42643 3.25586 7.29167 1.875 7.29167ZM12.5 19.7917C10.4289 19.7917 8.75 16.5267 8.75 12.5C8.75 8.47266 10.4289 5.20833 12.5 5.20833C14.5711 5.20833 16.25 8.47266 16.25 12.5C16.25 16.528 14.5703 19.7917 12.5 19.7917ZM23.125 21.875L20.625 22.9167C20.625 20.6152 7.36914 12.5 8.75 12.5L23.125 21.875ZM23.125 7.29167C21.7441 7.29167 20.625 5.42643 20.625 3.125H23.125V7.29167Z" fill="#242423" fill-opacity="0.94"/>
</svg>
