<svg width="26" height="26" viewBox="0 0 26 26" fill="none" xmlns="http://www.w3.org/2000/svg">
<path d="M10.1782 25.3846H4.53468C4.13493 25.3846 3.79961 25.2606 3.52872 25.0126C3.25783 24.7646 3.12285 24.4581 3.12379 24.093V15.0513H0.725284C0.396077 15.0513 0.172687 14.9114 0.0551128 14.6315C-0.0624611 14.3517 0.00808304 14.1149 0.266746 13.9211L12.0477 4.20137C12.3063 3.96456 12.6238 3.84616 13 3.84616C13.3762 3.84616 13.6937 3.96456 13.9524 4.20137L18.6435 8.07635V6.00969C18.6435 5.64372 18.779 5.33674 19.0499 5.08874C19.3208 4.84074 19.6556 4.71717 20.0544 4.71803H21.4653C21.8651 4.71803 22.2004 4.84203 22.4713 5.09003C22.7422 5.33803 22.8771 5.64458 22.8762 6.00969V11.5638L25.7333 13.9211C25.9919 14.1149 26.0625 14.3517 25.9449 14.6315C25.8273 14.9114 25.6039 15.0513 25.2747 15.0513H22.8762V24.093C22.8762 24.4589 22.7408 24.7659 22.4699 25.0139C22.199 25.2619 21.8641 25.3855 21.4653 25.3846H15.8218V18.9263C15.8218 18.5603 15.6863 18.2534 15.4154 18.0054C15.1445 17.7574 14.8097 17.6338 14.4109 17.6346H11.5891C11.1894 17.6346 10.854 17.7586 10.5832 18.0066C10.3123 18.2546 10.1773 18.5612 10.1782 18.9263V25.3846ZM10.1782 12.5003H15.8218C15.8218 11.8114 15.5396 11.2461 14.9752 10.8043C14.4109 10.3626 13.7525 10.1422 13 10.143C12.2475 10.143 11.5891 10.3639 11.0248 10.8056C10.4604 11.2474 10.1782 11.8123 10.1782 12.5003Z" fill="#242423" fill-opacity="0.94"/>
</svg>
