<svg width="65" height="64" viewBox="0 0 65 64" fill="none" xmlns="http://www.w3.org/2000/svg">
<circle cx="32" cy="32" r="31" stroke="#376382" stroke-width="2"/>
<path d="M32 11.25C43.5664 11.25 53 20.6836 53 32.25C53 43.8984 43.5664 53.25 32 53.25C25.1094 53.25 18.957 49.9688 15.1836 44.8828C14.6914 44.3086 14.8555 43.4883 15.4297 43.0781C16.0039 42.5859 16.8242 42.75 17.2344 43.3242C20.5977 47.7539 25.9297 50.625 32 50.625C42.0898 50.625 50.375 42.4219 50.375 32.25C50.375 22.1602 42.0898 13.875 32 13.875C24.6172 13.875 18.3008 18.2227 15.3477 24.375H22.8125C23.4688 24.375 24.125 25.0312 24.125 25.6875C24.125 26.4258 23.4688 27 22.8125 27H12.3125C11.5742 27 11 26.4258 11 25.6875V15.1875C11 14.5312 11.5742 13.875 12.3125 13.875C12.9688 13.875 13.625 14.5312 13.625 15.1875V22.0781C17.1523 15.6797 24.043 11.25 32 11.25ZM32 21.75C32.6562 21.75 33.3125 22.4062 33.3125 23.0625V31.7578L39.4648 37.9102C39.957 38.4023 39.957 39.3047 39.4648 39.7969C38.9727 40.2891 38.0703 40.2891 37.5781 39.7969L31.0156 33.2344C30.7695 32.9883 30.6055 32.6602 30.6055 32.25V23.0625C30.6055 22.4062 31.2617 21.75 31.918 21.75H32Z" fill="#376382"/>
</svg>
