<svg width="16" height="13" viewBox="0 0 16 13" fill="none" xmlns="http://www.w3.org/2000/svg">
<path d="M3.52344 6.6875C3.21875 6.96875 3.19531 7.4375 3.45312 7.76562C3.73438 8.07031 4.20312 8.09375 4.50781 7.8125C4.90625 7.46094 5.375 7.17969 5.84375 6.96875L4.55469 5.96094C4.17969 6.17188 3.85156 6.40625 3.52344 6.6875ZM8.14062 8.77344C8.09375 8.77344 8.04688 8.77344 7.97656 8.77344C7.15625 8.77344 6.47656 9.42969 6.47656 10.2734C6.47656 11.0938 7.15625 11.7734 7.97656 11.7734C8.82031 11.7734 9.47656 11.0938 9.47656 10.2734C9.47656 10.0859 9.45312 9.92188 9.40625 9.75781L8.14062 8.77344ZM0.710938 4.17969C0.429688 4.46094 0.40625 4.95312 0.6875 5.23438C0.992188 5.53906 1.46094 5.5625 1.76562 5.25781C2.04688 4.97656 2.375 4.74219 2.67969 4.50781L1.46094 3.54688C1.20312 3.73438 0.945312 3.94531 0.710938 4.17969ZM9.03125 6.61719C9.92188 6.80469 10.7656 7.20312 11.4688 7.8125C11.6094 7.95312 11.7734 8 11.9609 8C12.1719 8 12.3594 7.92969 12.5234 7.76562C12.7812 7.4375 12.7578 6.96875 12.4531 6.6875C11.2109 5.60938 9.64062 5 7.97656 5C7.67188 5 7.36719 5.04688 7.08594 5.07031L4.85938 3.33594C5.84375 2.96094 6.89844 2.75 7.97656 2.75C10.2969 2.75 12.5234 3.64062 14.1875 5.25781C14.3516 5.39844 14.5391 5.46875 14.7266 5.46875C14.9141 5.46875 15.1016 5.39844 15.2656 5.23438C15.5469 4.95312 15.5234 4.46094 15.2422 4.17969C13.2969 2.30469 10.7188 1.25 7.97656 1.25C6.40625 1.25 4.88281 1.625 3.5 2.28125L1.39062 0.640625C1.29688 0.546875 1.17969 0.5 1.0625 0.5C0.875 0.5 0.710938 0.59375 0.617188 0.734375C0.40625 0.96875 0.453125 1.32031 0.710938 1.50781L14.5859 12.3828C14.8203 12.5938 15.1719 12.5469 15.3594 12.2891C15.5703 12.0547 15.5234 11.7031 15.2656 11.5156L9.03125 6.61719Z" fill="#E7790C"/>
</svg>
