<svg width="16" height="16" viewBox="0 0 16 16" fill="none" xmlns="http://www.w3.org/2000/svg">
<g clip-path="url(#clip0_704_2477)">
<path d="M9.5 2.5V5.5H12.5L9.5 2.5ZM8.75 5.5V2.5H4.625C3.99219 2.5 3.5 3.01562 3.5 3.625V13.375C3.5 14.0078 3.99219 14.5 4.625 14.5H11.375C11.9844 14.5 12.5 14.0078 12.5 13.375V6.25H9.5C9.07812 6.25 8.75 5.92188 8.75 5.5ZM9.875 12.25H6.125C5.91406 12.25 5.75 12.0859 5.75 11.875C5.75 11.6875 5.91406 11.5 6.125 11.5H9.875C10.0625 11.5 10.25 11.6875 10.25 11.875C10.25 12.0859 10.0625 12.25 9.875 12.25ZM9.875 10.75H6.125C5.91406 10.75 5.75 10.5859 5.75 10.375C5.75 10.1875 5.91406 10 6.125 10H9.875C10.0625 10 10.25 10.1875 10.25 10.375C10.25 10.5859 10.0625 10.75 9.875 10.75ZM10.25 8.875C10.25 9.08594 10.0625 9.25 9.875 9.25H6.125C5.91406 9.25 5.75 9.08594 5.75 8.875C5.75 8.6875 5.91406 8.5 6.125 8.5H9.875C10.0625 8.5 10.25 8.6875 10.25 8.875Z" fill="#AAC4D8"/>
</g>
<defs>
<clipPath id="clip0_704_2477">
<rect width="16" height="16" fill="white"/>
</clipPath>
</defs>
</svg>
