<svg width="12" height="13" viewBox="0 0 12 13" fill="none" xmlns="http://www.w3.org/2000/svg">
<path d="M0.75 11C0.75 11.8438 1.40625 12.5 2.25 12.5H9.75C10.5703 12.5 11.25 11.8438 11.25 11V3.5H0.75V11ZM3.375 5.375H8.625C8.8125 5.375 9 5.5625 9 5.75C9 5.96094 8.8125 6.125 8.625 6.125H3.375C3.16406 6.125 3 5.96094 3 5.75C3 5.5625 3.16406 5.375 3.375 5.375ZM3.375 7.625H8.625C8.8125 7.625 9 7.8125 9 8C9 8.21094 8.8125 8.375 8.625 8.375H3.375C3.16406 8.375 3 8.21094 3 8C3 7.8125 3.16406 7.625 3.375 7.625ZM3.375 9.875H5.625C5.8125 9.875 6 10.0625 6 10.25C6 10.4609 5.8125 10.625 5.625 10.625H3.375C3.16406 10.625 3 10.4609 3 10.25C3 10.0625 3.16406 9.875 3.375 9.875ZM9.75 0.5H2.25C1.40625 0.5 0.75 1.17969 0.75 2V2.75H11.25V2C11.25 1.17969 10.5703 0.5 9.75 0.5Z" fill="#00A8E8"/>
</svg>
