<svg width="16" height="15" viewBox="0 0 16 15" fill="none" xmlns="http://www.w3.org/2000/svg">
<path d="M15.7148 7.25C15.7148 7.74219 15.3281 8.12891 14.8711 8.12891H2.91797L7.59375 12.5586C7.94531 12.875 7.94531 13.4375 7.62891 13.7539C7.3125 14.1055 6.78516 14.1055 6.43359 13.7891L0.246094 7.88281C0.0703125 7.70703 0 7.49609 0 7.25C0 7.03906 0.0703125 6.82812 0.246094 6.65234L6.43359 0.746094C6.78516 0.429688 7.3125 0.429688 7.62891 0.78125C7.94531 1.09766 7.94531 1.66016 7.59375 1.97656L2.91797 6.40625H14.8711C15.3633 6.40625 15.7148 6.79297 15.7148 7.25Z" fill="#252525"/>
</svg>
