<svg width="65" height="64" viewBox="0 0 65 64" fill="none" xmlns="http://www.w3.org/2000/svg">
<circle cx="32" cy="32" r="31" stroke="#AAC4D8" stroke-width="2"/>
<path d="M42.5 11.25H21.5C18.5469 11.25 16.25 13.6289 16.25 16.5V51.9375C16.25 52.3477 16.4961 52.8398 16.9062 53.0859C17.3164 53.25 17.8086 53.25 18.2188 53.0039L32 44.3086L45.6992 53.0039C45.9453 53.25 46.1914 53.25 46.4375 53.25C46.6016 53.25 46.8477 53.25 47.0117 53.168C47.4219 52.9219 47.75 52.4297 47.75 51.9375V16.5C47.75 13.6289 45.3711 11.25 42.5 11.25ZM45.125 49.5586L32.6562 41.6836C32.4102 41.5195 32.2461 41.4375 32 41.4375C31.7539 41.4375 31.5078 41.5195 31.2617 41.6836L18.875 49.5586V16.5C18.875 15.1055 20.0234 13.875 21.5 13.875H42.5C43.8945 13.875 45.125 15.1055 45.125 16.5V49.5586Z" fill="#AAC4D8"/>
</svg>
