<svg width="16" height="16" viewBox="0 0 16 16" fill="none" xmlns="http://www.w3.org/2000/svg">
<g clip-path="url(#clip0_704_2500)">
<path d="M7.4375 14.2188C6.21875 12.6953 3.5 9.0625 3.5 7C3.5 4.51562 5.49219 2.5 8 2.5C10.4844 2.5 12.5 4.51562 12.5 7C12.5 9.0625 9.75781 12.6953 8.53906 14.2188C8.25781 14.5703 7.71875 14.5703 7.4375 14.2188ZM8 8.5C8.82031 8.5 9.5 7.84375 9.5 7C9.5 6.17969 8.82031 5.5 8 5.5C7.15625 5.5 6.5 6.17969 6.5 7C6.5 7.84375 7.15625 8.5 8 8.5Z" fill="#AAC4D8"/>
</g>
<defs>
<clipPath id="clip0_704_2500">
<rect width="16" height="16" fill="white"/>
</clipPath>
</defs>
</svg>
