<svg width="16" height="16" viewBox="0 0 16 16" fill="none" xmlns="http://www.w3.org/2000/svg">
<g clip-path="url(#clip0_704_2504)">
<path d="M12.5 3.27344C12.1719 3.27344 11.8906 3.32031 11.6094 3.41406C11.375 2.875 10.8594 2.5 10.25 2.5C9.40625 2.5 8.75 3.17969 8.75 4C8.75 4.5625 9.05469 5.03125 9.5 5.3125V6.25C9.5 6.67188 9.82812 7 10.25 7H10.4375C10.5312 7 10.625 7.09375 10.625 7.1875V7.5625C10.625 7.67969 10.5312 7.75 10.4375 7.75H10.25C9.40625 7.75 8.75 7.09375 8.75 6.25V5.6875C8.25781 5.26562 8 4.65625 8 4C8 3.74219 8.04688 3.50781 8.11719 3.25L5 3.27344C2.51562 3.27344 0.5 5.28906 0.5 7.75V10.3516C0.5 10.5625 0.664062 10.7031 0.875 10.7031L1.25 10.75V14.125C1.25 14.3359 1.41406 14.5 1.625 14.5H3.125C3.3125 14.5 3.5 14.3359 3.5 14.125V11.6172C4.25 12.0156 5.14062 12.2734 6.125 12.2734C7.08594 12.2734 7.97656 12.0156 8.75 11.6172V14.1484C8.75 14.3359 8.91406 14.5 9.125 14.5H10.625C10.8125 14.5 11 14.3359 11 14.1484V9.25L12.5 9.27344C13.0391 9.27344 13.5547 9.10938 14 8.85156V11.125C14 11.3359 13.8125 11.5234 13.625 11.5234C13.4141 11.5234 13.25 11.3359 13.25 11.1484C13.25 10.9375 13.0625 10.7734 12.875 10.7734H12.125C11.9141 10.7734 11.75 10.9375 11.75 11.125C11.75 12.2266 12.6875 13.0938 13.8125 12.9766C14.7734 12.9062 15.5 12.0156 15.5 11.0312V6.25C15.5 4.60938 14.1406 3.27344 12.5 3.27344ZM12.875 6.25C12.6641 6.25 12.5 6.08594 12.5 5.89844C12.5 5.6875 12.6641 5.52344 12.875 5.52344C13.0625 5.52344 13.25 5.6875 13.25 5.875C13.25 6.08594 13.0625 6.25 12.875 6.25Z" fill="#AAC4D8"/>
</g>
<defs>
<clipPath id="clip0_704_2504">
<rect width="16" height="16" fill="white"/>
</clipPath>
</defs>
</svg>
