<svg width="25" height="24" viewBox="0 0 25 24" fill="none" xmlns="http://www.w3.org/2000/svg">
<g clip-path="url(#clip0_932_3394)">
<path d="M8 17.875C8 14.7461 10.1445 12.0742 13.0625 11.3359C13.9414 12.5664 15.3477 13.375 17 13.375C17.3164 13.375 17.668 13.3398 17.9844 13.2695L20.8672 16.0117C21.9922 17.1016 22.625 18.543 22.625 20.0898V20.125C22.625 20.7578 22.0977 21.25 21.5 21.25C20.8672 21.25 20.375 20.7578 20.375 20.125V20.0898C20.375 19.1758 19.9883 18.2969 19.3203 17.6641L17 15.4492V19H18.125C18.7227 19 19.25 19.5273 19.25 20.125C19.25 20.7578 18.7227 21.25 18.125 21.25H8C4.87109 21.25 2.375 18.7539 2.375 15.625V7.15234C2.375 5.00781 4.09766 3.25 6.24219 3.25H6.59375C8.59766 3.25 10.2148 4.9375 10.1094 6.94141C10.0391 8.66406 8.77344 10.0352 7.08594 10.2812H7.01562C6.38281 10.3867 5.82031 9.92969 5.75 9.33203C5.64453 8.69922 6.10156 8.13672 6.69922 8.06641L6.76953 8.03125C7.36719 7.96094 7.82422 7.46875 7.85938 6.83594C7.89453 6.13281 7.33203 5.5 6.59375 5.5H6.24219C5.32812 5.5 4.58984 6.23828 4.58984 7.15234V15.625C4.58984 17.4883 6.10156 19 7.96484 19L8 17.875ZM15.3125 7.1875C15.3125 6.90625 15.5586 6.625 15.875 6.625C16.1562 6.625 16.4375 6.90625 16.4375 7.1875C16.4375 7.50391 16.1562 7.75 15.875 7.75C15.5586 7.75 15.3125 7.50391 15.3125 7.1875ZM18.6875 7.1875C18.6875 7.50391 18.4062 7.75 18.125 7.75C17.8086 7.75 17.5625 7.50391 17.5625 7.1875C17.5625 6.90625 17.8086 6.625 18.125 6.625C18.4062 6.625 18.6875 6.90625 18.6875 7.1875ZM17 12.25C15.9453 12.25 15.0312 11.8281 14.3633 11.1602C14.0469 10.8086 13.8008 10.457 13.5898 10C12.3594 10 11.375 9.01562 11.375 7.75C11.375 6.51953 12.3594 5.53516 13.5898 5.5C14.1523 4.19922 15.4531 3.25 17 3.25C18.5117 3.25 19.8125 4.19922 20.375 5.5C21.6055 5.53516 22.625 6.51953 22.625 7.75C22.625 9.01562 21.6055 10 20.375 10C19.8125 11.3359 18.5117 12.25 17 12.25ZM15.875 5.5C14.9258 5.5 14.1875 6.27344 14.1875 7.1875C14.1875 8.03125 14.7852 8.73438 15.5938 8.875V9.15625C15.5938 9.96484 16.1914 10.5625 17 10.5625C17.7734 10.5625 18.4062 9.96484 18.4062 9.15625V8.875C19.1797 8.73438 19.8125 8.03125 19.8125 7.1875C19.8125 6.27344 19.0391 5.5 18.125 5.5H15.875Z" fill="#D1AD52"/>
</g>
<defs>
<clipPath id="clip0_932_3394">
<rect x="0.5" width="24" height="24" rx="4" fill="white"/>
</clipPath>
</defs>
</svg>
