<svg width="25" height="24" viewBox="0 0 25 24" fill="none" xmlns="http://www.w3.org/2000/svg">
<g clip-path="url(#clip0_932_3391)">
<path d="M12.5 3.25C7.50781 3.25 3.5 7.29297 3.5 12.25C3.5 17.2422 7.50781 21.25 12.5 21.25C17.457 21.25 21.5 17.2422 21.5 12.25C21.5 7.29297 17.457 3.25 12.5 3.25ZM12.5 7.75C13.0977 7.75 13.625 8.27734 13.625 8.875C13.625 9.50781 13.0977 10 12.5 10C11.8672 10 11.375 9.50781 11.375 8.875C11.375 8.27734 11.8672 7.75 12.5 7.75ZM13.9062 16.75H11.0938C10.6016 16.75 10.25 16.3984 10.25 15.9062C10.25 15.4492 10.6016 15.0625 11.0938 15.0625H11.6562V12.8125H11.375C10.8828 12.8125 10.5312 12.4609 10.5312 11.9688C10.5312 11.5117 10.8828 11.125 11.375 11.125H12.5C12.957 11.125 13.3438 11.5117 13.3438 11.9688V15.0625H13.9062C14.3633 15.0625 14.75 15.4492 14.75 15.9062C14.75 16.3984 14.3633 16.75 13.9062 16.75Z" fill="#C07933"/>
</g>
<defs>
<clipPath id="clip0_932_3391">
<rect x="0.5" width="24" height="24" rx="4" fill="white"/>
</clipPath>
</defs>
</svg>
