<svg width="42" height="42" viewBox="0 0 42 42" fill="none" xmlns="http://www.w3.org/2000/svg">
<circle cx="21" cy="21" r="21" fill="#E8EDDF"/>
<path d="M18.1782 31.3846H12.5347C12.1349 31.3846 11.7996 31.2606 11.5287 31.0126C11.2578 30.7646 11.1229 30.4581 11.1238 30.093V21.0513H8.72528C8.39608 21.0513 8.17269 20.9114 8.05511 20.6315C7.93754 20.3517 8.00808 20.1149 8.26675 19.9211L20.0477 10.2014C20.3063 9.96456 20.6238 9.84616 21 9.84616C21.3762 9.84616 21.6937 9.96456 21.9524 10.2014L26.6435 14.0764V12.0097C26.6435 11.6437 26.779 11.3367 27.0499 11.0887C27.3208 10.8407 27.6556 10.7172 28.0544 10.718H29.4653C29.8651 10.718 30.2004 10.842 30.4713 11.09C30.7422 11.338 30.8771 11.6446 30.8762 12.0097V17.5638L33.7333 19.9211C33.9919 20.1149 34.0625 20.3517 33.9449 20.6315C33.8273 20.9114 33.6039 21.0513 33.2747 21.0513H30.8762V30.093C30.8762 30.4589 30.7408 30.7659 30.4699 31.0139C30.199 31.2619 29.8641 31.3855 29.4653 31.3846H23.8218V24.9263C23.8218 24.5603 23.6863 24.2534 23.4154 24.0054C23.1445 23.7574 22.8097 23.6338 22.4109 23.6346H19.5891C19.1894 23.6346 18.854 23.7586 18.5832 24.0066C18.3123 24.2546 18.1773 24.5612 18.1782 24.9263V31.3846ZM18.1782 18.5003H23.8218C23.8218 17.8114 23.5396 17.2461 22.9752 16.8043C22.4109 16.3626 21.7525 16.1422 21 16.143C20.2475 16.143 19.5891 16.3639 19.0248 16.8056C18.4604 17.2474 18.1782 17.8123 18.1782 18.5003Z" fill="#242423" fill-opacity="0.94"/>
</svg>
