<svg width="24" height="24" viewBox="0 0 24 24" fill="none" xmlns="http://www.w3.org/2000/svg">
<g clip-path="url(#clip0_451_8106)">
<path d="M12 3.25C7.00781 3.25 3 7.29297 3 12.25C3 17.2422 7.00781 21.25 12 21.25C16.957 21.25 21 17.2422 21 12.25C21 7.29297 16.957 3.25 12 3.25ZM12 19.5625C7.95703 19.5625 4.6875 16.293 4.6875 12.25C4.6875 8.24219 7.95703 4.9375 12 4.9375C16.0078 4.9375 19.3125 8.24219 19.3125 12.25C19.3125 16.293 16.0078 19.5625 12 19.5625ZM13.4062 15.0625H12.8438V11.9688C12.8438 11.5117 12.457 11.125 12 11.125H10.875C10.3828 11.125 10.0312 11.5117 10.0312 11.9688C10.0312 12.4609 10.3828 12.8125 10.875 12.8125H11.1562V15.0625H10.5938C10.1016 15.0625 9.75 15.4492 9.75 15.9062C9.75 16.3984 10.1016 16.75 10.5938 16.75H13.4062C13.8633 16.75 14.25 16.3984 14.25 15.9062C14.25 15.4492 13.8633 15.0625 13.4062 15.0625ZM12 10C12.5977 10 13.125 9.50781 13.125 8.875C13.125 8.27734 12.5977 7.75 12 7.75C11.3672 7.75 10.875 8.27734 10.875 8.875C10.875 9.50781 11.3672 10 12 10Z" fill="white"/>
<path d="M12 3.25C7.00781 3.25 3 7.29297 3 12.25C3 17.2422 7.00781 21.25 12 21.25C16.957 21.25 21 17.2422 21 12.25C21 7.29297 16.957 3.25 12 3.25ZM12 7.75C12.5977 7.75 13.125 8.27734 13.125 8.875C13.125 9.50781 12.5977 10 12 10C11.3672 10 10.875 9.50781 10.875 8.875C10.875 8.27734 11.3672 7.75 12 7.75ZM13.4062 16.75H10.5938C10.1016 16.75 9.75 16.3984 9.75 15.9062C9.75 15.4492 10.1016 15.0625 10.5938 15.0625H11.1562V12.8125H10.875C10.3828 12.8125 10.0312 12.4609 10.0312 11.9688C10.0312 11.5117 10.3828 11.125 10.875 11.125H12C12.457 11.125 12.8438 11.5117 12.8438 11.9688V15.0625H13.4062C13.8633 15.0625 14.25 15.4492 14.25 15.9062C14.25 16.3984 13.8633 16.75 13.4062 16.75Z" fill="#E7790C"/>
</g>
<defs>
<clipPath id="clip0_451_8106">
<rect width="24" height="24" fill="white"/>
</clipPath>
</defs>
</svg>
