<svg width="12" height="13" viewBox="0 0 12 13" fill="none" xmlns="http://www.w3.org/2000/svg">
<path d="M10.9219 2.46875L6.42188 0.59375C6.30469 0.546875 6.11719 0.523438 6 0.523438C5.85938 0.523438 5.67188 0.546875 5.55469 0.59375L1.05469 2.46875C0.632812 2.65625 0.375 3.05469 0.375 3.5C0.375 9.54688 4.80469 12.5 5.97656 12.5C7.19531 12.5 11.625 9.5 11.625 3.5C11.625 3.05469 11.3438 2.65625 10.9219 2.46875ZM8.25 5.1875C8.25 5.32812 8.20312 5.46875 8.10938 5.5625L5.85938 8.1875C5.69531 8.375 5.48438 8.375 5.4375 8.375C5.27344 8.375 5.13281 8.30469 5.03906 8.21094L3.91406 7.08594C3.79688 6.99219 3.75 6.85156 3.75 6.6875C3.75 6.38281 3.98438 6.125 4.3125 6.125C4.45312 6.125 4.59375 6.17188 4.6875 6.28906L5.39062 6.96875L7.24219 4.8125C7.35938 4.67188 7.52344 4.625 7.6875 4.625C8.10938 4.625 8.25 5.02344 8.25 5.1875Z" fill="#747474"/>
</svg>
