<svg width="10" height="13" viewBox="0 0 10 13" fill="none" xmlns="http://www.w3.org/2000/svg">
<path d="M8 0.5H2C1.15625 0.5 0.5 1.17969 0.5 2V11C0.5 11.8438 1.15625 12.5 2 12.5H8C8.82031 12.5 9.5 11.8438 9.5 11V2C9.5 1.17969 8.82031 0.5 8 0.5ZM5.375 8.75H2.375C2.16406 8.75 2 8.58594 2 8.375C2 8.1875 2.16406 8 2.375 8H5.375C5.5625 8 5.75 8.1875 5.75 8.375C5.75 8.58594 5.5625 8.75 5.375 8.75ZM7.625 6.5H2.375C2.16406 6.5 2 6.33594 2 6.125C2 5.9375 2.16406 5.75 2.375 5.75H7.625C7.8125 5.75 8 5.9375 8 6.125C8 6.33594 7.8125 6.5 7.625 6.5ZM7.625 4.25H2.375C2.16406 4.25 2 4.08594 2 3.875C2 3.6875 2.16406 3.5 2.375 3.5H7.625C7.8125 3.5 8 3.6875 8 3.875C8 4.08594 7.8125 4.25 7.625 4.25Z" fill="#747474"/>
</svg>
