<svg width="24" height="24" viewBox="0 0 24 24" fill="none" xmlns="http://www.w3.org/2000/svg">
<path d="M7.5 12C7.5 9.51562 9.46875 7.5 12 7.5C14.4844 7.5 16.5 9.51562 16.5 12C16.5 14.4844 14.4844 16.5 12 16.5C9.46875 16.5 7.5 14.4844 7.5 12ZM12 9.75C10.7344 9.75 9.75 10.7812 9.75 12C9.75 13.2656 10.7344 14.25 12 14.25C13.2188 14.25 14.25 13.2656 14.25 12C14.25 10.7812 13.2188 9.75 12 9.75ZM13.7344 0C14.7656 0 15.6562 0.75 15.8906 1.73438L16.2656 3.28125C16.6875 3.46875 17.0625 3.70312 17.3906 3.9375L18.9375 3.46875C19.9219 3.1875 21 3.60938 21.5156 4.5L23.25 7.54688C23.7656 8.4375 23.5781 9.5625 22.8281 10.2656L21.7031 11.3438C21.7031 11.5781 21.75 11.8125 21.75 12C21.75 12.2344 21.7031 12.4688 21.7031 12.6562L22.8281 13.7812C23.5781 14.4844 23.7656 15.6094 23.25 16.5L21.5156 19.5469C21 20.4375 19.9219 20.8594 18.9375 20.5781L17.3906 20.1094C17.0625 20.3438 16.6875 20.5781 16.2656 20.7656L15.8906 22.3125C15.6562 23.2969 14.7656 24 13.7344 24H10.2188C9.1875 24 8.29688 23.2969 8.0625 22.3125L7.6875 20.7656C7.26562 20.5781 6.89062 20.3438 6.5625 20.1094L5.01562 20.5781C4.03125 20.8594 2.95312 20.4375 2.4375 19.5469L0.703125 16.5C0.1875 15.6094 0.375 14.4844 1.125 13.7812L2.25 12.6562C2.25 12.4688 2.25 12.2344 2.25 12C2.25 11.8125 2.25 11.5781 2.25 11.3438L1.125 10.2656C0.375 9.5625 0.1875 8.4375 0.703125 7.54688L2.4375 4.5C2.95312 3.60938 4.03125 3.1875 5.01562 3.46875L6.5625 3.9375C6.89062 3.70312 7.26562 3.46875 7.6875 3.28125L8.0625 1.73438C8.29688 0.75 9.1875 0 10.2188 0H13.7344ZM9.60938 4.875L9.09375 5.10938C8.48438 5.34375 7.92188 5.67188 7.45312 6.04688L6.98438 6.42188L4.40625 5.625L2.67188 8.67188L4.59375 10.5L4.54688 11.0625C4.5 11.3906 4.5 11.7188 4.5 12C4.5 12.3281 4.5 12.6562 4.54688 12.9844L4.59375 13.5469L2.67188 15.375L4.40625 18.4219L6.98438 17.625L7.45312 18C7.92188 18.375 8.48438 18.7031 9.09375 18.9375L9.60938 19.1719L10.2188 21.75H13.7344L14.3438 19.1719L14.8594 18.9375C15.4688 18.7031 16.0312 18.375 16.5 18L16.9688 17.625L19.5469 18.4219L21.2812 15.375L19.3594 13.5469L19.4062 12.9844C19.4531 12.6562 19.5 12.3281 19.5 12C19.5 11.7188 19.4531 11.3906 19.4062 11.0625L19.3594 10.5L21.2812 8.67188L19.5469 5.625L16.9688 6.42188L16.5 6.04688C16.0312 5.67188 15.4688 5.34375 14.8594 5.10938L14.3438 4.875L13.7344 2.25H10.2188L9.60938 4.875Z" fill="white"/>
</svg>
