<svg width="42" height="42" viewBox="0 0 42 42" fill="none" xmlns="http://www.w3.org/2000/svg">
<circle cx="21" cy="21" r="21" fill="#E8EDDF"/>
<path d="M23.25 23.5833H22.625V17.8542C22.625 17.5664 22.4852 17.3333 22.3125 17.3333H21.782C21.5969 17.3333 21.416 17.4245 21.2621 17.5957L20.6633 18.2611C20.6291 18.299 20.5998 18.3477 20.5769 18.4045C20.5541 18.4613 20.5382 18.5251 20.5301 18.5921C20.5221 18.6592 20.522 18.7282 20.53 18.7953C20.538 18.8624 20.5538 18.9262 20.5766 18.9831L20.9234 19.8496C20.9462 19.9065 20.9754 19.9554 21.0095 19.9935C21.0436 20.0316 21.0818 20.0581 21.1221 20.0715C21.1623 20.0849 21.2037 20.085 21.244 20.0717C21.2842 20.0584 21.3225 20.0321 21.3566 19.9941L21.375 19.974V23.5833H20.75C20.5773 23.5833 20.4375 23.8164 20.4375 24.1042V25.1458C20.4375 25.4336 20.5773 25.6667 20.75 25.6667H23.25C23.4227 25.6667 23.5625 25.4336 23.5625 25.1458V24.1042C23.5625 23.8164 23.4227 23.5833 23.25 23.5833ZM33.25 9H10.75C10.0598 9 9.5 9.93294 9.5 11.0833V31.9167C9.5 33.0671 10.0598 34 10.75 34H33.25C33.9402 34 34.5 33.0671 34.5 31.9167V11.0833C34.5 9.93294 33.9402 9 33.25 9ZM11.375 30.875V26.7083C12.7559 26.7083 13.875 28.5736 13.875 30.875H11.375ZM11.375 16.2917V12.125H13.875C13.875 14.4264 12.7559 16.2917 11.375 16.2917ZM22 28.7917C19.9289 28.7917 18.25 25.5267 18.25 21.5C18.25 17.4727 19.9289 14.2083 22 14.2083C24.0711 14.2083 25.75 17.4727 25.75 21.5C25.75 25.528 24.0703 28.7917 22 28.7917ZM32.625 30.875L30.125 31.9167C30.125 29.6152 16.8691 21.5 18.25 21.5L32.625 30.875ZM32.625 16.2917C31.2441 16.2917 30.125 14.4264 30.125 12.125H32.625V16.2917Z" fill="#242423" fill-opacity="0.94"/>
</svg>
