<svg width="16" height="16" viewBox="0 0 16 16" fill="none" xmlns="http://www.w3.org/2000/svg">
<g clip-path="url(#clip0_1315_5629)">
<path d="M3.52344 8.6875C3.21875 8.96875 3.19531 9.4375 3.45312 9.76562C3.73438 10.0703 4.20312 10.0938 4.50781 9.8125C4.90625 9.46094 5.375 9.17969 5.84375 8.96875L4.55469 7.96094C4.17969 8.17188 3.85156 8.40625 3.52344 8.6875ZM8.14062 10.7734C8.09375 10.7734 8.04688 10.7734 7.97656 10.7734C7.15625 10.7734 6.47656 11.4297 6.47656 12.2734C6.47656 13.0938 7.15625 13.7734 7.97656 13.7734C8.82031 13.7734 9.47656 13.0938 9.47656 12.2734C9.47656 12.0859 9.45312 11.9219 9.40625 11.7578L8.14062 10.7734ZM0.710938 6.17969C0.429688 6.46094 0.40625 6.95312 0.6875 7.23438C0.992188 7.53906 1.46094 7.5625 1.76562 7.25781C2.04688 6.97656 2.375 6.74219 2.67969 6.50781L1.46094 5.54688C1.20312 5.73438 0.945312 5.94531 0.710938 6.17969ZM9.03125 8.61719C9.92188 8.80469 10.7656 9.20312 11.4688 9.8125C11.6094 9.95312 11.7734 10 11.9609 10C12.1719 10 12.3594 9.92969 12.5234 9.76562C12.7812 9.4375 12.7578 8.96875 12.4531 8.6875C11.2109 7.60938 9.64062 7 7.97656 7C7.67188 7 7.36719 7.04688 7.08594 7.07031L4.85938 5.33594C5.84375 4.96094 6.89844 4.75 7.97656 4.75C10.2969 4.75 12.5234 5.64062 14.1875 7.25781C14.3516 7.39844 14.5391 7.46875 14.7266 7.46875C14.9141 7.46875 15.1016 7.39844 15.2656 7.23438C15.5469 6.95312 15.5234 6.46094 15.2422 6.17969C13.2969 4.30469 10.7188 3.25 7.97656 3.25C6.40625 3.25 4.88281 3.625 3.5 4.28125L1.39062 2.64062C1.29688 2.54688 1.17969 2.5 1.0625 2.5C0.875 2.5 0.710938 2.59375 0.617188 2.73438C0.40625 2.96875 0.453125 3.32031 0.710938 3.50781L14.5859 14.3828C14.8203 14.5938 15.1719 14.5469 15.3594 14.2891C15.5703 14.0547 15.5234 13.7031 15.2656 13.5156L9.03125 8.61719Z" fill="white"/>
</g>
<defs>
<clipPath id="clip0_1315_5629">
<rect width="16" height="16" fill="white"/>
</clipPath>
</defs>
</svg>
