<svg width="42" height="42" viewBox="0 0 42 42" fill="none" xmlns="http://www.w3.org/2000/svg">
<circle cx="21" cy="21" r="21" fill="#E8EDDF"/>
<path d="M35 13.7143V14.5C35 14.6042 34.9508 14.7041 34.8633 14.7778C34.7758 14.8515 34.6571 14.8929 34.5333 14.8929H33.1333V15.4822C33.1333 15.8076 32.8199 16.0714 32.4333 16.0714H9.56667C9.18009 16.0714 8.86667 15.8076 8.86667 15.4822V14.8929H7.46667C7.3429 14.8929 7.2242 14.8515 7.13668 14.7778C7.04917 14.7041 7 14.6042 7 14.5V13.7143C7 13.6366 7.02739 13.5606 7.07869 13.496C7.13 13.4314 7.20292 13.381 7.28822 13.3513L20.8216 9.02987C20.9358 8.99004 21.0642 8.99004 21.1784 9.02987L34.7118 13.3513C34.7971 13.381 34.87 13.4314 34.9213 13.496C34.9726 13.5606 35 13.6366 35 13.7143ZM33.6 28.6429H8.4C7.62679 28.6429 7 29.1705 7 29.8214V30.6071C7 30.7113 7.04917 30.8113 7.13668 30.8849C7.2242 30.9586 7.3429 31 7.46667 31H34.5333C34.6571 31 34.7758 30.9586 34.8633 30.8849C34.9508 30.8113 35 30.7113 35 30.6071V29.8214C35 29.1705 34.3732 28.6429 33.6 28.6429ZM11.6667 16.8572V26.2857H9.56667C9.18009 26.2857 8.86667 26.5496 8.86667 26.875V27.8571H33.1333V26.875C33.1333 26.5496 32.8199 26.2857 32.4333 26.2857H30.3333V16.8572H26.6V26.2857H22.8667V16.8572H19.1333V26.2857H15.4V16.8572H11.6667Z" fill="#242423" fill-opacity="0.94"/>
</svg>
