<svg width="25" height="24" viewBox="0 0 25 24" fill="none" xmlns="http://www.w3.org/2000/svg">
<g clip-path="url(#clip0_932_3387)">
<path d="M12.5 3.25C17.457 3.25 21.5 7.29297 21.5 12.25C21.5 17.2422 17.457 21.25 12.5 21.25C10.5664 21.25 8.80859 20.6523 7.33203 19.668C6.83984 19.2812 6.69922 18.5781 7.05078 18.0859C7.40234 17.5586 8.10547 17.4531 8.63281 17.8047C9.72266 18.5781 11.0586 19 12.5 19C16.2266 19 19.25 15.9766 19.25 12.25C19.25 8.52344 16.2266 5.5 12.5 5.5C10.6016 5.5 8.94922 6.27344 7.71875 7.50391L8.80859 8.55859C9.33594 9.12109 8.94922 10 8.21094 10H4.34375C3.85156 10 3.5 9.64844 3.5 9.15625V5.28906C3.5 4.55078 4.37891 4.16406 4.90625 4.69141L6.10156 5.88672C7.75391 4.26953 10.0039 3.25 12.4648 3.25H12.5ZM12.5 7.75C12.957 7.75 13.3438 8.13672 13.3438 8.59375V11.9336L15.5938 14.1836C15.9453 14.5352 15.9453 15.0625 15.5938 15.3789C15.2773 15.7305 14.75 15.7305 14.4336 15.3789L11.9023 12.8477C11.7266 12.707 11.6562 12.4961 11.6562 12.25V8.59375C11.6562 8.13672 12.0078 7.75 12.5 7.75Z" fill="#376382"/>
</g>
<defs>
<clipPath id="clip0_932_3387">
<rect x="0.5" width="24" height="24" rx="4" fill="white"/>
</clipPath>
</defs>
</svg>
