<svg width="48" height="48" viewBox="0 0 48 48" fill="none" xmlns="http://www.w3.org/2000/svg">
<rect width="48" height="48" rx="4" fill="#AAC4D8"/>
<g clip-path="url(#clip0_926_3208)">
<path d="M17.4609 22.8438L23.3672 16.6562C23.543 16.4805 23.7539 16.4102 24 16.4102C24.2109 16.4102 24.4219 16.4805 24.5977 16.6562L30.5039 22.8438C30.8203 23.1953 30.8203 23.7227 30.4688 24.0391C30.1523 24.3555 29.5898 24.3555 29.2734 24.0039L24.8438 19.3281V31.2812C24.8438 31.7734 24.457 32.125 24 32.125C23.5781 32.125 23.1562 31.7734 23.1562 31.2812V19.3281L18.6914 24.0039C18.375 24.3555 17.8125 24.3555 17.4961 24.0391C17.1445 23.7227 17.1445 23.1602 17.4609 22.8438Z" fill="white"/>
</g>
<defs>
<clipPath id="clip0_926_3208">
<rect width="24" height="24" fill="white" transform="translate(12 12)"/>
</clipPath>
</defs>
</svg>
