<svg width="8" height="8" viewBox="0 0 8 8" fill="none" xmlns="http://www.w3.org/2000/svg">
<path d="M7.25 0.25C6.96875 0.25 6.75 0.484375 6.75 0.75V1.92188C6.125 1.04688 5.10938 0.5 4 0.5C2.51562 0.5 1.21875 1.45312 0.765625 2.85938C0.6875 3.125 0.828125 3.40625 1.09375 3.48438C1.35938 3.5625 1.64062 3.42188 1.71875 3.15625C2.03125 2.17188 2.95312 1.5 4 1.5C4.78125 1.5 5.5 1.89062 5.9375 2.5H5.25C4.96875 2.5 4.75 2.73438 4.75 3C4.75 3.28125 4.96875 3.5 5.25 3.5H7.25C7.51562 3.5 7.75 3.28125 7.75 3V0.75C7.75 0.484375 7.51562 0.25 7.25 0.25ZM6.89062 4.53125C6.625 4.45312 6.34375 4.59375 6.26562 4.85938C5.95312 5.84375 5.03125 6.5 4 6.5C3.20312 6.5 2.48438 6.125 2.04688 5.5H2.75C3.01562 5.5 3.25 5.28125 3.25 5C3.25 4.73438 3.01562 4.5 2.75 4.5H0.75C0.46875 4.5 0.25 4.73438 0.25 5V7.25C0.25 7.53125 0.46875 7.75 0.75 7.75C1.01562 7.75 1.25 7.53125 1.25 7.25V6.09375C1.85938 6.96875 2.875 7.5 3.98438 7.5C5.45312 7.5 6.75 6.5625 7.20312 5.15625C7.29688 4.89062 7.15625 4.60938 6.89062 4.53125Z" fill="#747474"/>
</svg>
