<svg width="16" height="16" viewBox="0 0 16 16" fill="none" xmlns="http://www.w3.org/2000/svg">
<path d="M14.5 6.5H9.5V1.5C9.5 1.10218 9.34196 0.720644 9.06066 0.43934C8.77936 0.158035 8.39782 0 8 0C7.60218 0 7.22064 0.158035 6.93934 0.43934C6.65804 0.720644 6.5 1.10218 6.5 1.5V6.5H1.5C1.10218 6.5 0.720644 6.65804 0.43934 6.93934C0.158035 7.22064 0 7.60218 0 8C0 8.39782 0.158035 8.77936 0.43934 9.06066C0.720644 9.34196 1.10218 9.5 1.5 9.5H6.5V14.5C6.5 14.8978 6.65804 15.2794 6.93934 15.5607C7.22064 15.842 7.60218 16 8 16C8.39782 16 8.77936 15.842 9.06066 15.5607C9.34196 15.2794 9.5 14.8978 9.5 14.5V9.5H14.5C14.8978 9.5 15.2794 9.34196 15.5607 9.06066C15.842 8.77936 16 8.39782 16 8C16 7.60218 15.842 7.22064 15.5607 6.93934C15.2794 6.65804 14.8978 6.5 14.5 6.5Z" fill="#242423"/>
</svg>
