<svg width="16" height="17" viewBox="0 0 16 17" fill="none" xmlns="http://www.w3.org/2000/svg">
<path d="M13.625 0.375C14.8555 0.375 15.875 1.39453 15.875 2.625V13.875C15.875 15.1406 14.8555 16.125 13.625 16.125H2.375C1.10938 16.125 0.125 15.1406 0.125 13.875V2.625C0.125 1.39453 1.10938 0.375 2.375 0.375H13.625ZM12.043 6.70312C12.4297 6.31641 12.4297 5.71875 12.043 5.33203C11.6562 4.94531 11.0586 4.94531 10.6719 5.33203L6.875 9.12891L5.29297 7.58203C4.90625 7.19531 4.30859 7.19531 3.92188 7.58203C3.53516 7.96875 3.53516 8.56641 3.92188 8.95312L6.17188 11.2031C6.55859 11.5898 7.15625 11.5898 7.54297 11.2031L12.043 6.70312Z" fill="#1665AA"/>
</svg>
