<svg width="12" height="13" viewBox="0 0 12 13" fill="none" xmlns="http://www.w3.org/2000/svg">
<path d="M1.5 12.125C1.5 12.3359 1.3125 12.5 1.125 12.5H0.375C0.164062 12.5 0 12.3359 0 12.125V1.25C0 0.851562 0.328125 0.5 0.75 0.5C1.14844 0.5 1.5 0.851562 1.5 1.25V12.125ZM11.1562 0.5C10.9922 0.5 10.8516 0.546875 10.6875 0.617188C9.63281 1.10938 8.83594 1.27344 8.17969 1.27344C6.77344 1.27344 5.95312 0.523438 4.33594 0.523438C3.75 0.523438 3.07031 0.617188 2.25 0.875V9.10156C3 8.86719 3.63281 8.77344 4.21875 8.77344C5.95312 8.77344 7.14844 9.5 8.88281 9.5C9.63281 9.5 10.4766 9.35938 11.4844 8.96094C11.8125 8.84375 12 8.58594 12 8.30469V1.22656C12 0.78125 11.6016 0.5 11.1562 0.5Z" fill="#2D2D2D"/>
</svg>
