<svg width="22" height="21" viewBox="0 0 22 21" fill="none" xmlns="http://www.w3.org/2000/svg">
<g clip-path="url(#clip0_86_460)">
<path d="M20.9307 9.14009C20.5682 9.14009 20.2741 9.42007 20.2741 9.76505V16.8421L15.0214 18.842V12.2649C15.0214 11.9199 14.7272 11.6399 14.3648 11.6399C14.0023 11.6399 13.7082 11.9199 13.7082 12.2649V18.8407L8.45548 16.8409V6.93897L11.4981 8.09765C11.8303 8.22514 12.2164 8.07015 12.3517 7.74892C12.4869 7.42894 12.3228 7.06522 11.9853 6.93647L8.05496 5.43907C8.05496 5.43907 8.05496 5.43907 8.05365 5.43907L8.04314 5.43532C7.88687 5.37532 7.71222 5.37532 7.55595 5.43532L7.54413 5.43907C7.54413 5.43907 7.54413 5.43907 7.54282 5.43907L0.988754 7.93516C0.740563 8.03015 0.576416 8.25889 0.576416 8.51512V19.7644C0.576416 19.9719 0.68541 20.1656 0.865315 20.2819C0.975622 20.3531 1.103 20.3894 1.233 20.3894C1.31573 20.3894 1.39846 20.3744 1.47726 20.3444L7.79889 17.9383L14.1087 20.3406C14.1087 20.3406 14.1087 20.3406 14.11 20.3406L14.1218 20.3456C14.2781 20.4056 14.4528 20.4056 14.609 20.3456L14.6208 20.3406C14.6208 20.3406 14.6208 20.3406 14.6222 20.3406L21.1762 17.8458C21.4231 17.7495 21.5872 17.5208 21.5872 17.2646V9.76505C21.5872 9.42007 21.2931 9.14009 20.9307 9.14009ZM7.1423 16.8409L1.88959 18.8407V8.9376L7.1423 6.93772V16.8409Z" fill="#424242"/>
<path d="M16.9911 2.89044C15.9051 2.89044 15.0214 3.73164 15.0214 4.76532C15.0214 5.79901 15.9051 6.64021 16.9911 6.64021C18.0771 6.64021 18.9609 5.79901 18.9609 4.76532C18.9609 3.73164 18.0771 2.89044 16.9911 2.89044ZM16.9911 5.39029C16.6287 5.39029 16.3345 5.1103 16.3345 4.76532C16.3345 4.42035 16.6287 4.14036 16.9911 4.14036C17.3536 4.14036 17.6477 4.42035 17.6477 4.76532C17.6477 5.1103 17.3536 5.39029 16.9911 5.39029Z" fill="#424242"/>
<path d="M16.9911 0.390625C14.4567 0.390625 12.395 2.353 12.395 4.76535C12.395 7.01021 16.0824 10.9862 16.5026 11.4324C16.6274 11.5637 16.8047 11.6399 16.9911 11.6399C17.1776 11.6399 17.3549 11.5637 17.4796 11.4324C17.8999 10.9862 21.5873 7.01021 21.5873 4.76535C21.5873 2.353 19.5256 0.390625 16.9911 0.390625ZM16.9911 10.0613C15.5571 8.44262 13.7082 5.95778 13.7082 4.76535C13.7082 3.04296 15.1816 1.64055 16.9911 1.64055C18.8007 1.64055 20.2741 3.04296 20.2741 4.76535C20.2741 5.95653 18.4251 8.44262 16.9911 10.0613Z" fill="#424242"/>
</g>
<defs>
<clipPath id="clip0_86_460">
<rect width="21.0121" height="20" fill="white" transform="translate(0.575806 0.390625)"/>
</clipPath>
</defs>
</svg>
