<svg width="21" height="20" viewBox="0 0 21 20" fill="none" xmlns="http://www.w3.org/2000/svg">
<path d="M19.9288 8.69904C19.9282 8.69858 19.9278 8.69797 19.9273 8.69751L11.7681 0.539398C11.4203 0.191498 10.9579 0 10.4661 0C9.97422 0 9.51183 0.191498 9.16389 0.539398L1.00893 8.69339C1.00618 8.69614 1.00328 8.69904 1.00068 8.70178C0.286501 9.42001 0.287722 10.5853 1.00419 11.3017C1.33153 11.6292 1.7637 11.8187 2.22594 11.8387C2.24486 11.8405 2.26378 11.8414 2.28286 11.8414H2.6079V17.8452C2.6079 19.0334 3.5748 20 4.76312 20H7.95527C8.27895 20 8.54127 19.7375 8.54127 19.4141V14.707C8.54127 14.1649 8.98245 13.7239 9.52465 13.7239H11.4075C11.9497 13.7239 12.3907 14.1649 12.3907 14.707V19.4141C12.3907 19.7375 12.653 20 12.9767 20H16.1688C17.3573 20 18.3241 19.0334 18.3241 17.8452V11.8414H18.6256C19.1173 11.8414 19.5797 11.6499 19.9278 11.3019C20.645 10.5844 20.6453 9.41696 19.9288 8.69904ZM19.099 10.4733C18.9725 10.5998 18.8043 10.6696 18.6256 10.6696H17.7381C17.4144 10.6696 17.1521 10.9319 17.1521 11.2555V17.8452C17.1521 18.3871 16.711 18.8281 16.1688 18.8281H13.5627V14.707C13.5627 13.5188 12.5959 12.552 11.4075 12.552H9.52465C8.33617 12.552 7.36928 13.5188 7.36928 14.707V18.8281H4.76312C4.22107 18.8281 3.7799 18.3871 3.7799 17.8452V11.2555C3.7799 10.9319 3.51757 10.6696 3.1939 10.6696H2.32162C2.31246 10.6689 2.30346 10.6685 2.29415 10.6683C2.11957 10.6653 1.95583 10.596 1.83314 10.4732C1.57218 10.2122 1.57218 9.7876 1.83314 9.52652C1.83329 9.52652 1.83329 9.52637 1.83344 9.52621L1.8339 9.52576L9.99283 1.36795C10.1192 1.24146 10.2872 1.17188 10.4661 1.17188C10.6448 1.17188 10.8128 1.24146 10.9393 1.36795L19.0964 9.52408C19.0976 9.5253 19.099 9.52652 19.1002 9.52774C19.3598 9.78912 19.3593 10.2129 19.099 10.4733Z" fill="#2E7D32"/>
</svg>
