<svg width="12" height="13" viewBox="0 0 12 13" fill="none" xmlns="http://www.w3.org/2000/svg">
<path d="M3 1.25C3 0.851562 3.32812 0.5 3.75 0.5C4.14844 0.5 4.5 0.851562 4.5 1.25V2H7.5V1.25C7.5 0.851562 7.82812 0.5 8.25 0.5C8.64844 0.5 9 0.851562 9 1.25V2H10.125C10.7344 2 11.25 2.51562 11.25 3.125V4.25H0.75V3.125C0.75 2.51562 1.24219 2 1.875 2H3V1.25ZM11.25 11.375C11.25 12.0078 10.7344 12.5 10.125 12.5H1.875C1.24219 12.5 0.75 12.0078 0.75 11.375V5H11.25V11.375ZM3.5625 8H8.4375C8.74219 8 9 7.76562 9 7.4375C9 7.13281 8.74219 6.875 8.4375 6.875H3.5625C3.23438 6.875 3 7.13281 3 7.4375C3 7.76562 3.23438 8 3.5625 8ZM3.5625 9.125C3.23438 9.125 3 9.38281 3 9.6875C3 10.0156 3.23438 10.25 3.5625 10.25H6.1875C6.49219 10.25 6.75 10.0156 6.75 9.6875C6.75 9.38281 6.49219 9.125 6.1875 9.125H3.5625Z" fill="#747474"/>
</svg>
