<svg width="23" height="19" viewBox="0 0 23 19" fill="none" xmlns="http://www.w3.org/2000/svg">
<path d="M18.25 1.41016C17.7578 1.41016 17.3359 1.48047 16.9141 1.62109C16.5625 0.8125 15.7891 0.25 14.875 0.25C13.6094 0.25 12.625 1.26953 12.625 2.5C12.625 3.34375 13.082 4.04688 13.75 4.46875V5.875C13.75 6.50781 14.2422 7 14.875 7H15.1562C15.2969 7 15.4375 7.14062 15.4375 7.28125V7.84375C15.4375 8.01953 15.2969 8.125 15.1562 8.125H14.875C13.6094 8.125 12.625 7.14062 12.625 5.875V5.03125C11.8867 4.39844 11.5 3.48438 11.5 2.5C11.5 2.11328 11.5703 1.76172 11.6758 1.375L7 1.41016C3.27344 1.41016 0.25 4.43359 0.25 8.125V12.0273C0.25 12.3438 0.496094 12.5547 0.8125 12.5547L1.375 12.625V17.6875C1.375 18.0039 1.62109 18.25 1.9375 18.25H4.1875C4.46875 18.25 4.75 18.0039 4.75 17.6875V13.9258C5.875 14.5234 7.21094 14.9102 8.6875 14.9102C10.1289 14.9102 11.4648 14.5234 12.625 13.9258V17.7227C12.625 18.0039 12.8711 18.25 13.1875 18.25H15.4375C15.7188 18.25 16 18.0039 16 17.7227V10.375L18.25 10.4102C19.0586 10.4102 19.832 10.1641 20.5 9.77734V13.1875C20.5 13.5039 20.2188 13.7852 19.9375 13.7852C19.6211 13.7852 19.375 13.5039 19.375 13.2227C19.375 12.9062 19.0938 12.6602 18.8125 12.6602H17.6875C17.3711 12.6602 17.125 12.9062 17.125 13.1875C17.125 14.8398 18.5312 16.1406 20.2188 15.9648C21.6602 15.8594 22.75 14.5234 22.75 13.0469V5.875C22.75 3.41406 20.7109 1.41016 18.25 1.41016ZM18.8125 5.875C18.4961 5.875 18.25 5.62891 18.25 5.34766C18.25 5.03125 18.4961 4.78516 18.8125 4.78516C19.0938 4.78516 19.375 5.03125 19.375 5.3125C19.375 5.62891 19.0938 5.875 18.8125 5.875Z" fill="#E7790C"/>
</svg>
