<svg width="32" height="25" viewBox="0 0 32 25" fill="none" xmlns="http://www.w3.org/2000/svg">
<path d="M19.7271 0.840119C19.1028 0.844619 18.4829 0.874994 17.8281 1.05049C17.1149 1.24411 16.4381 1.55306 15.8245 1.96512C14.9628 1.45887 14.128 1.04262 13.3281 0.944743C12.3347 0.822118 11.4123 0.888494 10.3401 0.910994C9.06888 0.936869 8.23975 1.58599 6.89425 2.10574C5.54987 2.62324 3.8185 3.12499 1.375 3.12499H0.25V13.9531L0.883375 14.2692L2.95675 15.2896L10.3401 23.5156L10.375 23.5505C11.2188 24.3852 12.3572 24.5922 13.363 24.5349C14.3699 24.4786 15.3149 24.1839 16.0697 23.7271C17.7314 22.7247 22.2572 19.5781 22.2572 19.5781L22.363 19.5072L22.4339 19.4375C22.9694 18.9054 23.2382 18.2562 23.4182 17.5745L27.7416 15.3942L30.976 14.3052L31.75 14.0577V3.12499H30.625C28.7339 3.13792 26.8587 2.77939 25.1057 2.06974C23.7602 1.54437 22.9435 0.901994 21.6588 0.874994C20.9725 0.861494 20.3504 0.835619 19.7271 0.840119ZM19.7609 3.09012C20.2671 3.08562 20.8521 3.11262 21.5901 3.12499C21.7082 3.12949 22.7894 3.59074 24.2969 4.18024C25.5715 4.68087 27.3423 5.12524 29.5 5.26924V12.4411L26.8979 13.3209H26.8281L26.7572 13.3546L23.3485 15.0781C23.1676 14.556 22.8802 14.0772 22.5047 13.6719L22.4339 13.5661L17.6526 7.69587L16.9495 6.81612L16.0697 7.51924L13.0469 9.98074C12.0321 10.6839 11.2097 10.4814 10.375 10.0865C10.1331 9.97174 10.1466 9.93687 9.95312 9.80524L15.0865 5.55049L15.1562 5.48074C16.6806 3.96874 17.6178 3.44562 18.4255 3.23074C18.8305 3.12049 19.2558 3.09462 19.7609 3.09012ZM11.923 3.12499C12.2984 3.11085 12.6742 3.1225 13.048 3.15987C13.3428 3.19474 13.6769 3.44562 13.9626 3.54687C13.8479 3.65262 13.7646 3.71337 13.6454 3.82812L13.5756 3.89899L7.423 8.99524L6.4735 9.76924L7.31725 10.6479C7.31725 10.6479 8.13063 11.5276 9.39175 12.125C10.6529 12.7224 12.6002 13.061 14.3485 11.8437L14.4194 11.7729L16.5985 9.98074L20.7475 15.0781L20.7824 15.149L20.8172 15.1827C21.5597 15.9174 21.5429 17.0727 20.8172 17.8209C20.8082 17.8287 20.8262 17.8467 20.8172 17.8546C20.8082 17.8602 20.6598 17.948 20.6418 17.9615L19.1646 15.9567L17.3365 17.2932L18.7787 19.226C18.1937 19.622 17.9305 19.829 17.3016 20.2464L15.7908 18.2067L13.9615 19.5432L15.4038 21.476C15.2755 21.5547 15.0122 21.7314 14.911 21.7932C14.5555 22.0081 13.8693 22.25 13.2584 22.2849C12.6835 22.3164 12.2436 22.1836 12.0288 22.0036L11.9939 21.9687L4.46987 13.637L4.32925 13.4604L2.5 12.5469V5.26924C4.64875 5.12862 6.433 4.70224 7.70312 4.21512C9.20613 3.63912 10.2794 3.16437 10.4099 3.15987L11.9219 3.12499H11.923Z" fill="#F5CB5C"/>
</svg>
