<svg width="32" height="32" viewBox="0 0 32 32" fill="none" xmlns="http://www.w3.org/2000/svg">
<path d="M13.76 6.39362L14.5455 5.44938V11.1948C14.5455 11.6193 14.6987 12.0263 14.9715 12.3265C15.2443 12.6266 15.6142 12.7952 16 12.7952C16.3858 12.7952 16.7557 12.6266 17.0285 12.3265C17.3013 12.0263 17.4545 11.6193 17.4545 11.1948V5.44938L18.24 6.3296C18.372 6.49368 18.5333 6.62617 18.7138 6.71887C18.8942 6.81157 19.0901 6.8625 19.2892 6.8685C19.4883 6.8745 19.6864 6.83545 19.8712 6.75376C20.056 6.67207 20.2236 6.54949 20.3636 6.39362C20.5 6.24484 20.6082 6.06783 20.682 5.87281C20.7559 5.67779 20.7939 5.4686 20.7939 5.25733C20.7939 5.04606 20.7559 4.83688 20.682 4.64186C20.6082 4.44683 20.5 4.26983 20.3636 4.12105L17.0327 0.456135C16.8944 0.310434 16.7313 0.196222 16.5527 0.120052C16.1986 -0.0400172 15.8014 -0.0400172 15.4473 0.120052C15.2687 0.196222 15.1056 0.310434 14.9673 0.456135L11.6364 4.05703C11.3548 4.36688 11.1965 4.78713 11.1965 5.22532C11.1965 5.66352 11.3548 6.08377 11.6364 6.39362C11.918 6.70347 12.2999 6.87754 12.6982 6.87754C13.0964 6.87754 13.4784 6.70347 13.76 6.39362ZM16 15.996C15.137 15.996 14.2933 16.2776 13.5757 16.8052C12.8581 17.3327 12.2988 18.0826 11.9685 18.9599C11.6383 19.8372 11.5518 20.8025 11.7202 21.7339C11.8886 22.6652 12.3042 23.5207 12.9144 24.1922C13.5247 24.8636 14.3022 25.3209 15.1487 25.5062C15.9952 25.6914 16.8725 25.5963 17.6699 25.2329C18.4672 24.8695 19.1487 24.2542 19.6282 23.4646C20.1077 22.6751 20.3636 21.7468 20.3636 20.7972C20.3636 19.5238 19.9039 18.3026 19.0856 17.4022C18.2672 16.5018 17.1573 15.996 16 15.996ZM16 22.3976C15.7123 22.3976 15.4311 22.3037 15.1919 22.1279C14.9527 21.952 14.7663 21.7021 14.6562 21.4097C14.5461 21.1172 14.5173 20.7954 14.5734 20.485C14.6295 20.1745 14.7681 19.8894 14.9715 19.6656C15.1749 19.4417 15.4341 19.2893 15.7162 19.2276C15.9984 19.1658 16.2908 19.1975 16.5566 19.3186C16.8224 19.4398 17.0496 19.6449 17.2094 19.9081C17.3692 20.1713 17.4545 20.4807 17.4545 20.7972C17.4545 21.2217 17.3013 21.6287 17.0285 21.9289C16.7557 22.229 16.3858 22.3976 16 22.3976ZM5.81818 20.7972C5.81818 21.1137 5.90349 21.4232 6.06332 21.6863C6.22314 21.9495 6.45031 22.1547 6.7161 22.2758C6.98188 22.3969 7.27434 22.4286 7.5565 22.3669C7.83865 22.3051 8.09782 22.1527 8.30125 21.9289C8.50467 21.705 8.6432 21.4199 8.69932 21.1094C8.75545 20.799 8.72664 20.4772 8.61655 20.1848C8.50646 19.8923 8.32003 19.6424 8.08083 19.4665C7.84163 19.2907 7.56041 19.1968 7.27273 19.1968C6.88696 19.1968 6.51699 19.3654 6.24421 19.6656C5.97143 19.9657 5.81818 20.3728 5.81818 20.7972ZM26.1818 20.7972C26.1818 20.4807 26.0965 20.1713 25.9367 19.9081C25.7769 19.6449 25.5497 19.4398 25.2839 19.3186C25.0181 19.1975 24.7257 19.1658 24.4435 19.2276C24.1614 19.2893 23.9022 19.4417 23.6988 19.6656C23.4953 19.8894 23.3568 20.1745 23.3007 20.485C23.2446 20.7954 23.2734 21.1172 23.3834 21.4097C23.4935 21.7021 23.68 21.952 23.9192 22.1279C24.1584 22.3037 24.4396 22.3976 24.7273 22.3976C25.113 22.3976 25.483 22.229 25.7558 21.9289C26.0286 21.6287 26.1818 21.2217 26.1818 20.7972ZM27.6364 9.59441H21.8182C21.4324 9.59441 21.0624 9.76303 20.7897 10.0632C20.5169 10.3633 20.3636 10.7704 20.3636 11.1948C20.3636 11.6193 20.5169 12.0263 20.7897 12.3265C21.0624 12.6266 21.4324 12.7952 21.8182 12.7952H27.6364C28.0221 12.7952 28.3921 12.9638 28.6649 13.264C28.9377 13.5641 29.0909 13.9712 29.0909 14.3956V27.1988C29.0909 27.6233 28.9377 28.0303 28.6649 28.3305C28.3921 28.6306 28.0221 28.7992 27.6364 28.7992H4.36364C3.97787 28.7992 3.6079 28.6306 3.33512 28.3305C3.06234 28.0303 2.90909 27.6233 2.90909 27.1988V14.3956C2.90909 13.9712 3.06234 13.5641 3.33512 13.264C3.6079 12.9638 3.97787 12.7952 4.36364 12.7952H10.1818C10.5676 12.7952 10.9376 12.6266 11.2103 12.3265C11.4831 12.0263 11.6364 11.6193 11.6364 11.1948C11.6364 10.7704 11.4831 10.3633 11.2103 10.0632C10.9376 9.76303 10.5676 9.59441 10.1818 9.59441H4.36364C3.20633 9.59441 2.09642 10.1003 1.27808 11.0007C0.459739 11.9011 0 13.1223 0 14.3956V27.1988C0 28.4722 0.459739 29.6934 1.27808 30.5938C2.09642 31.4942 3.20633 32 4.36364 32H27.6364C28.7937 32 29.9036 31.4942 30.7219 30.5938C31.5403 29.6934 32 28.4722 32 27.1988V14.3956C32 13.1223 31.5403 11.9011 30.7219 11.0007C29.9036 10.1003 28.7937 9.59441 27.6364 9.59441Z" fill="#E8EDDF"/>
</svg>
