<svg width="40" height="40" viewBox="0 0 40 40" fill="none" xmlns="http://www.w3.org/2000/svg">
<circle opacity="0.05" cx="20" cy="20" r="20" fill="#0601B4"/>
<path d="M31.8128 18.6277L30.5246 15.7079C30.0607 14.6697 29.0526 14.0031 27.9416 14H9.47091C8.10677 14.0015 7.00142 15.1382 7 16.5411V22.8913C7.00102 23.66 7.60669 24.2829 8.35417 24.2839H10.375C10.5722 25.2826 11.4259 26 12.4167 26C13.4075 26 14.2611 25.2826 14.4583 24.2839H24.5417C24.7388 25.2826 25.5925 26 26.5833 26C27.5741 26 28.4278 25.2826 28.625 24.2839H30.8418C31.4812 24.2833 31.9994 23.7504 32 23.0928V19.5148C32.0002 19.2087 31.9363 18.9062 31.8128 18.6277ZM30.9095 18.6557L27 18.3193V16.5195L29.8092 16.1584L30.9095 18.6557ZM12.4167 25.1409C11.7264 25.1409 11.1667 24.5653 11.1667 23.8554C11.1667 23.1455 11.7264 22.5699 12.4167 22.5699C13.107 22.5699 13.6667 23.1455 13.6667 23.8554C13.6667 24.5653 13.107 25.1409 12.4167 25.1409ZM26.5833 25.1409C25.893 25.1409 25.3333 24.5653 25.3333 23.8554C25.3333 23.1455 25.893 22.5699 26.5833 22.5699C27.2736 22.5699 27.8333 23.1455 27.8333 23.8554C27.8333 24.5653 27.2736 25.1409 26.5833 25.1409ZM30.8418 23.4269H28.625C28.4278 22.4283 27.5741 21.7108 26.5833 21.7108C25.5925 21.7108 24.7388 22.4283 24.5417 23.4269H14.4583C14.2611 22.4283 13.4075 21.7108 12.4167 21.7108C11.4259 21.7108 10.5722 22.4283 10.375 23.4269H8.35417C8.06669 23.4265 7.83374 23.1869 7.83333 22.8913V16.5411C7.83435 15.6113 8.56677 14.858 9.47091 14.857H27.9416C28.4262 14.858 28.8939 15.0392 29.2587 15.3669L26.5575 15.714H10.3333C10.1032 15.714 9.91667 15.9058 9.91667 16.1425V18.7135C9.91667 18.9501 10.1032 19.142 10.3333 19.142H26.5658L31.1667 19.5361V23.0928C31.1665 23.2771 31.021 23.4267 30.8418 23.4269ZM10.75 18.285V16.571H13.6667V18.285H10.75ZM14.5 16.571H17.8333V18.285H14.5V16.571ZM18.6667 16.571H21.5833V18.285H18.6667V16.571ZM22.4167 16.571H26.1667V18.285H22.4167V16.571Z" fill="#2E7D32"/>
</svg>
